M48
; DRILL file {KiCad (6.0.9)} date Sun 06 Nov 2022 01:44:17 AM PST
; FORMAT={-:-/ absolute / metric / decimal}
; #@! TF.CreationDate,2022-11-06T01:44:17-08:00
; #@! TF.GenerationSoftware,Kicad,Pcbnew,(6.0.9)
; #@! TF.FileFunction,NonPlated,1,2,NPTH
FMAT,2
METRIC
; #@! TA.AperFunction,NonPlated,NPTH,ComponentDrill
T1C4.000
%
G90
G05
T1
X70.12Y-99.68
X90.44Y-79.36
X90.44Y-99.68
X90.44Y-120.0
X110.76Y-79.36
X110.76Y-120.0
X110.88Y-99.68
X131.08Y-79.36
X131.08Y-99.68
X131.08Y-120.0
X151.4Y-79.36
X151.4Y-99.68
X151.4Y-120.0
X171.72Y-79.36
X171.72Y-99.68
X171.72Y-120.0
X181.88Y-155.56
X181.88Y-175.88
X181.88Y-196.2
X192.04Y-79.36
X192.04Y-99.68
X192.04Y-119.88
X202.2Y-59.04
X202.2Y-155.56
X202.2Y-175.88
X202.2Y-196.2
X212.36Y-99.68
X212.38Y-130.16
X222.52Y-59.04
X222.52Y-155.56
X222.52Y-175.88
X222.52Y-196.2
X232.68Y-79.36
X232.68Y-99.68
X232.68Y-120.0
X242.84Y-155.56
X242.84Y-175.88
X242.84Y-196.2
X253.0Y-79.36
X253.0Y-99.68
X253.0Y-120.0
X273.32Y-79.36
X273.32Y-99.68
X273.32Y-120.0
X293.64Y-79.36
X293.64Y-99.68
X293.64Y-120.0
X313.96Y-79.36
X313.96Y-99.68
X313.96Y-120.0
X334.28Y-79.36
X334.28Y-99.68
X334.28Y-120.0
X354.6Y-99.68
T0
M30
