M48
; DRILL file {KiCad (6.0.9)} date Sun 06 Nov 2022 01:44:17 AM PST
; FORMAT={-:-/ absolute / metric / decimal}
; #@! TF.CreationDate,2022-11-06T01:44:17-08:00
; #@! TF.GenerationSoftware,Kicad,Pcbnew,(6.0.9)
; #@! TF.FileFunction,Plated,1,2,PTH
FMAT,2
METRIC
; #@! TA.AperFunction,Plated,PTH,ViaDrill
T1C0.400
; #@! TA.AperFunction,Plated,PTH,ComponentDrill
T2C0.800
; #@! TA.AperFunction,Plated,PTH,ComponentDrill
T3C1.500
%
G90
G05
T1
X83.25Y-146.5
X88.0Y-146.5
X96.25Y-144.0
X99.0Y-148.25
X110.75Y-144.25
X113.25Y-149.0
X114.75Y-143.75
X123.5Y-145.0
X127.5Y-143.75
X127.5Y-146.0
X148.75Y-149.0
X150.5Y-148.25
X151.75Y-142.5
X155.0Y-143.75
X155.0Y-145.25
X165.0Y-143.0
X167.5Y-141.75
X167.5Y-143.0
X167.5Y-145.5
X169.5Y-145.75
X171.75Y-141.25
X173.0Y-144.75
X176.0Y-218.0
X177.75Y-141.5
X178.25Y-221.5
X180.75Y-145.75
X185.0Y-218.5
X186.25Y-147.0
X190.25Y-218.5
X192.0Y-141.75
X196.25Y-217.25
X197.75Y-140.0
X197.75Y-223.25
X201.75Y-135.0
X202.0Y-143.75
X202.25Y-83.75
X202.25Y-217.75
X203.5Y-222.25
X204.75Y-217.75
X204.75Y-219.25
X205.25Y-86.25
X211.5Y-217.75
X211.75Y-219.25
X218.75Y-120.25
X220.5Y-71.25
X220.5Y-84.75
X220.5Y-116.5
X223.75Y-222.25
X226.0Y-141.5
X226.25Y-144.0
X226.5Y-221.5
X226.75Y-140.5
X228.0Y-143.75
X228.5Y-218.75
X229.0Y-146.0
X230.75Y-217.5
X232.5Y-140.75
X236.75Y-145.0
X242.0Y-220.5
X247.0Y-140.5
X252.0Y-214.75
X253.0Y-141.5
X254.75Y-51.5
X254.75Y-146.25
X257.5Y-145.0
X257.5Y-212.0
X260.5Y-51.5
X262.0Y-146.5
X263.48Y-150.48
X263.5Y-152.75
X264.5Y-141.5
X267.25Y-140.5
X269.5Y-143.75
X273.25Y-140.5
X275.25Y-145.0
X287.75Y-140.75
X289.25Y-146.5
X295.75Y-141.5
X303.25Y-143.75
X304.25Y-145.0
X305.5Y-141.5
X308.0Y-140.5
X308.0Y-143.25
X311.75Y-140.5
X322.25Y-53.25
X322.25Y-58.75
X325.0Y-145.25
X325.25Y-68.5
X325.75Y-73.5
X326.75Y-68.5
X330.0Y-57.5
X332.75Y-54.5
X333.0Y-143.25
X334.25Y-141.5
X338.0Y-143.25
X340.5Y-142.25
X347.0Y-72.75
X355.0Y-54.75
X361.25Y-61.0
T2
X70.0Y-110.5
X70.0Y-118.12
X84.75Y-130.75
X84.75Y-138.37
X90.5Y-130.75
X90.5Y-138.37
X96.25Y-130.75
X96.25Y-138.37
X105.0Y-130.75
X105.0Y-138.37
X110.75Y-130.75
X110.75Y-138.37
X116.5Y-130.75
X116.5Y-138.37
X125.5Y-130.75
X125.5Y-138.37
X131.25Y-130.75
X131.25Y-138.37
X137.0Y-130.75
X137.0Y-138.37
X145.5Y-130.75
X145.5Y-138.37
X151.5Y-130.75
X151.5Y-138.37
X157.25Y-130.75
X157.25Y-138.37
X166.0Y-130.75
X166.0Y-138.37
X171.75Y-130.75
X171.75Y-138.37
X176.0Y-207.0
X176.0Y-214.62
X177.75Y-130.75
X177.75Y-138.37
X182.0Y-207.0
X182.0Y-214.62
X186.25Y-130.75
X186.25Y-138.37
X188.0Y-207.0
X188.0Y-214.62
X192.0Y-130.75
X192.0Y-138.37
X196.25Y-207.0
X196.25Y-214.62
X197.75Y-130.75
X197.75Y-138.37
X202.25Y-207.0
X202.25Y-214.62
X208.25Y-207.0
X208.25Y-214.62
X208.63Y-142.5
X208.69Y-112.5
X209.36Y-71.94
X209.36Y-79.56
X215.0Y-71.94
X215.0Y-79.56
X216.25Y-142.5
X216.31Y-112.5
X216.5Y-207.0
X216.5Y-214.62
X222.5Y-207.0
X222.5Y-214.62
X226.6Y-130.75
X226.6Y-138.37
X228.5Y-207.0
X228.5Y-214.62
X232.6Y-130.75
X232.6Y-138.37
X236.75Y-207.0
X236.75Y-214.62
X238.6Y-130.75
X238.6Y-138.37
X242.75Y-207.0
X242.75Y-214.62
X247.0Y-130.75
X247.0Y-138.37
X248.75Y-207.0
X248.75Y-214.62
X253.0Y-130.75
X253.0Y-138.37
X259.0Y-130.75
X259.0Y-138.37
X267.25Y-130.75
X267.25Y-138.37
X273.25Y-130.75
X273.25Y-138.37
X279.25Y-130.75
X279.25Y-138.37
X287.75Y-130.75
X287.75Y-138.37
X293.75Y-130.75
X293.75Y-138.37
X299.75Y-130.75
X299.75Y-138.37
X308.0Y-130.75
X308.0Y-138.37
X314.0Y-130.75
X314.0Y-138.37
X320.0Y-130.75
X320.0Y-138.37
X328.25Y-130.75
X328.25Y-138.37
X329.41Y-51.63
X329.41Y-66.87
X331.95Y-51.63
X331.95Y-66.87
X334.25Y-130.75
X334.25Y-138.37
X334.49Y-51.63
X334.49Y-66.87
X337.03Y-51.63
X337.03Y-66.87
X339.57Y-51.63
X339.57Y-66.87
X340.25Y-130.75
X340.25Y-138.37
X342.11Y-51.63
X342.11Y-66.87
X344.65Y-51.63
X344.65Y-66.87
X347.19Y-51.63
X347.19Y-66.87
X349.73Y-51.63
X349.73Y-66.87
X352.27Y-51.63
X352.27Y-66.87
X354.5Y-110.5
X354.5Y-118.12
X354.81Y-51.63
X354.81Y-66.87
X357.35Y-51.63
X357.35Y-66.87
T3
X66.31Y-97.14
X72.66Y-94.6
X86.63Y-76.82
X86.63Y-97.14
X86.63Y-117.46
X92.98Y-74.28
X92.98Y-94.6
X92.98Y-114.92
X106.95Y-76.82
X106.95Y-117.46
X107.07Y-97.14
X113.3Y-74.28
X113.3Y-114.92
X113.42Y-94.6
X127.27Y-76.82
X127.27Y-97.14
X127.27Y-117.46
X133.62Y-74.28
X133.62Y-94.6
X133.62Y-114.92
X147.59Y-76.82
X147.59Y-97.14
X147.59Y-117.46
X153.94Y-74.28
X153.94Y-94.6
X153.94Y-114.92
X167.91Y-76.82
X167.91Y-97.14
X167.91Y-117.46
X174.26Y-74.28
X174.26Y-94.6
X174.26Y-114.92
X178.07Y-153.02
X178.07Y-173.34
X178.07Y-193.66
X184.42Y-150.48
X184.42Y-170.8
X184.42Y-191.12
X188.23Y-76.82
X188.23Y-97.14
X188.23Y-117.34
X194.58Y-74.28
X194.58Y-94.6
X194.58Y-114.8
X198.39Y-56.5
X198.39Y-153.02
X198.39Y-173.34
X198.39Y-193.66
X204.74Y-53.96
X204.74Y-150.48
X204.74Y-170.8
X204.74Y-191.12
X208.55Y-97.14
X208.57Y-127.62
X214.9Y-94.6
X214.92Y-125.08
X218.71Y-56.5
X218.71Y-153.02
X218.71Y-173.34
X218.71Y-193.66
X225.06Y-53.96
X225.06Y-150.48
X225.06Y-170.8
X225.06Y-191.12
X228.87Y-76.82
X228.87Y-97.14
X228.87Y-117.46
X235.22Y-74.28
X235.22Y-94.6
X235.22Y-114.92
X239.03Y-153.02
X239.03Y-173.34
X239.03Y-193.66
X245.38Y-150.48
X245.38Y-170.8
X245.38Y-191.12
X249.19Y-76.82
X249.19Y-97.14
X249.19Y-117.46
X255.54Y-74.28
X255.54Y-94.6
X255.54Y-114.92
X269.51Y-76.82
X269.51Y-97.14
X269.51Y-117.46
X275.86Y-74.28
X275.86Y-94.6
X275.86Y-114.92
X289.83Y-76.82
X289.83Y-97.14
X289.83Y-117.46
X296.18Y-74.28
X296.18Y-94.6
X296.18Y-114.92
X310.15Y-76.82
X310.15Y-97.14
X310.15Y-117.46
X316.5Y-74.28
X316.5Y-94.6
X316.5Y-114.92
X330.47Y-76.82
X330.47Y-97.14
X330.47Y-117.46
X336.82Y-74.28
X336.82Y-94.6
X336.82Y-114.92
X350.79Y-97.14
X357.14Y-94.6
T0
M30
