%TF.GenerationSoftware,KiCad,Pcbnew,(6.0.9)*%
%TF.CreationDate,2022-11-06T01:43:20-08:00*%
%TF.ProjectId,kb_pcb,6b625f70-6362-42e6-9b69-6361645f7063,rev?*%
%TF.SameCoordinates,Original*%
%TF.FileFunction,Copper,L1,Top*%
%TF.FilePolarity,Positive*%
%FSLAX46Y46*%
G04 Gerber Fmt 4.6, Leading zero omitted, Abs format (unit mm)*
G04 Created by KiCad (PCBNEW (6.0.9)) date 2022-11-06 01:43:20*
%MOMM*%
%LPD*%
G01*
G04 APERTURE LIST*
%TA.AperFunction,ComponentPad*%
%ADD10C,2.200000*%
%TD*%
%TA.AperFunction,ComponentPad*%
%ADD11R,1.600000X1.600000*%
%TD*%
%TA.AperFunction,ComponentPad*%
%ADD12O,1.600000X1.600000*%
%TD*%
%TA.AperFunction,ViaPad*%
%ADD13C,0.800000*%
%TD*%
%TA.AperFunction,Conductor*%
%ADD14C,0.250000*%
%TD*%
G04 APERTURE END LIST*
D10*
X255540000Y-114920000D03*
X249190000Y-117460000D03*
D11*
X202250000Y-214620000D03*
D12*
X202250000Y-207000000D03*
D10*
X153940000Y-114920000D03*
X147590000Y-117460000D03*
X245380000Y-150480000D03*
X239030000Y-153020000D03*
D11*
X354500000Y-118120000D03*
D12*
X354500000Y-110500000D03*
D11*
X145500000Y-138370000D03*
D12*
X145500000Y-130750000D03*
D11*
X151500000Y-138370000D03*
D12*
X151500000Y-130750000D03*
D11*
X267250000Y-138370000D03*
D12*
X267250000Y-130750000D03*
D11*
X208250000Y-214620000D03*
D12*
X208250000Y-207000000D03*
D10*
X133620000Y-94600000D03*
X127270000Y-97140000D03*
X296180000Y-74280000D03*
X289830000Y-76820000D03*
X214920000Y-125080000D03*
X208570000Y-127620000D03*
D11*
X293750000Y-138370000D03*
D12*
X293750000Y-130750000D03*
D10*
X316500000Y-114920000D03*
X310150000Y-117460000D03*
D11*
X90500000Y-138370000D03*
D12*
X90500000Y-130750000D03*
D11*
X259000000Y-138370000D03*
D12*
X259000000Y-130750000D03*
D10*
X214900000Y-94600000D03*
X208550000Y-97140000D03*
D11*
X328250000Y-138370000D03*
D12*
X328250000Y-130750000D03*
D11*
X84750000Y-138370000D03*
D12*
X84750000Y-130750000D03*
D11*
X182000000Y-214620000D03*
D12*
X182000000Y-207000000D03*
D11*
X131250000Y-138370000D03*
D12*
X131250000Y-130750000D03*
D10*
X245380000Y-170800000D03*
X239030000Y-173340000D03*
X296180000Y-114920000D03*
X289830000Y-117460000D03*
X316500000Y-74280000D03*
X310150000Y-76820000D03*
D11*
X248750000Y-214620000D03*
D12*
X248750000Y-207000000D03*
D11*
X166000000Y-138370000D03*
D12*
X166000000Y-130750000D03*
D10*
X275860000Y-74280000D03*
X269510000Y-76820000D03*
D11*
X216500000Y-214620000D03*
D12*
X216500000Y-207000000D03*
D10*
X225060000Y-150480000D03*
X218710000Y-153020000D03*
D11*
X157250000Y-138370000D03*
D12*
X157250000Y-130750000D03*
D11*
X176000000Y-214620000D03*
D12*
X176000000Y-207000000D03*
D11*
X314000000Y-138370000D03*
D12*
X314000000Y-130750000D03*
D11*
X308000000Y-138370000D03*
D12*
X308000000Y-130750000D03*
D10*
X296180000Y-94600000D03*
X289830000Y-97140000D03*
D11*
X209360000Y-79560000D03*
D12*
X209360000Y-71940000D03*
D10*
X204740000Y-170800000D03*
X198390000Y-173340000D03*
D11*
X340250000Y-138370000D03*
D12*
X340250000Y-130750000D03*
D10*
X113420000Y-94600000D03*
X107070000Y-97140000D03*
X225060000Y-53960000D03*
X218710000Y-56500000D03*
D11*
X125500000Y-138370000D03*
D12*
X125500000Y-130750000D03*
D10*
X92980000Y-74280000D03*
X86630000Y-76820000D03*
X235220000Y-74280000D03*
X228870000Y-76820000D03*
D11*
X96250000Y-138370000D03*
D12*
X96250000Y-130750000D03*
D10*
X194580000Y-114800000D03*
X188230000Y-117340000D03*
X255540000Y-94600000D03*
X249190000Y-97140000D03*
X336820000Y-74280000D03*
X330470000Y-76820000D03*
X174260000Y-74280000D03*
X167910000Y-76820000D03*
X255540000Y-74280000D03*
X249190000Y-76820000D03*
X336820000Y-94600000D03*
X330470000Y-97140000D03*
X275860000Y-94600000D03*
X269510000Y-97140000D03*
D11*
X216310000Y-112500000D03*
D12*
X208690000Y-112500000D03*
D10*
X225060000Y-170800000D03*
X218710000Y-173340000D03*
D11*
X226600000Y-138370000D03*
D12*
X226600000Y-130750000D03*
D11*
X334250000Y-138370000D03*
D12*
X334250000Y-130750000D03*
D10*
X194580000Y-94600000D03*
X188230000Y-97140000D03*
D11*
X242750000Y-214620000D03*
D12*
X242750000Y-207000000D03*
D11*
X105000000Y-138370000D03*
D12*
X105000000Y-130750000D03*
D10*
X275860000Y-114920000D03*
X269510000Y-117460000D03*
D11*
X116500000Y-138370000D03*
D12*
X116500000Y-130750000D03*
X273250000Y-130750000D03*
D11*
X273250000Y-138370000D03*
D10*
X357140000Y-94600000D03*
X350790000Y-97140000D03*
D11*
X137000000Y-138370000D03*
D12*
X137000000Y-130750000D03*
D11*
X247000000Y-138370000D03*
D12*
X247000000Y-130750000D03*
D10*
X72660000Y-94600000D03*
X66310000Y-97140000D03*
X235220000Y-94600000D03*
X228870000Y-97140000D03*
X133620000Y-74280000D03*
X127270000Y-76820000D03*
X174260000Y-94600000D03*
X167910000Y-97140000D03*
D11*
X279250000Y-138370000D03*
D12*
X279250000Y-130750000D03*
D11*
X222500000Y-214620000D03*
D12*
X222500000Y-207000000D03*
D11*
X287750000Y-138370000D03*
D12*
X287750000Y-130750000D03*
D11*
X236750000Y-214620000D03*
D12*
X236750000Y-207000000D03*
D10*
X194580000Y-74280000D03*
X188230000Y-76820000D03*
X92980000Y-94600000D03*
X86630000Y-97140000D03*
X235220000Y-114920000D03*
X228870000Y-117460000D03*
X336820000Y-114920000D03*
X330470000Y-117460000D03*
X184420000Y-170800000D03*
X178070000Y-173340000D03*
X204740000Y-191120000D03*
X198390000Y-193660000D03*
X245380000Y-191120000D03*
X239030000Y-193660000D03*
D11*
X186250000Y-138370000D03*
D12*
X186250000Y-130750000D03*
D11*
X228500000Y-214620000D03*
D12*
X228500000Y-207000000D03*
D10*
X92980000Y-114920000D03*
X86630000Y-117460000D03*
D11*
X320000000Y-138370000D03*
D12*
X320000000Y-130750000D03*
D11*
X177750000Y-138370000D03*
D12*
X177750000Y-130750000D03*
D10*
X204740000Y-150480000D03*
X198390000Y-153020000D03*
X225060000Y-191120000D03*
X218710000Y-193660000D03*
D11*
X299750000Y-138370000D03*
D12*
X299750000Y-130750000D03*
D11*
X238600000Y-138370000D03*
D12*
X238600000Y-130750000D03*
D11*
X110750000Y-138370000D03*
D12*
X110750000Y-130750000D03*
D11*
X253000000Y-138370000D03*
D12*
X253000000Y-130750000D03*
D10*
X133620000Y-114920000D03*
X127270000Y-117460000D03*
X184420000Y-191120000D03*
X178070000Y-193660000D03*
X174260000Y-114920000D03*
X167910000Y-117460000D03*
D11*
X215000000Y-79560000D03*
D12*
X215000000Y-71940000D03*
D11*
X216250000Y-142500000D03*
D12*
X208630000Y-142500000D03*
D11*
X188000000Y-214620000D03*
D12*
X188000000Y-207000000D03*
D11*
X357350000Y-51630000D03*
D12*
X354810000Y-51630000D03*
X352270000Y-51630000D03*
X349730000Y-51630000D03*
X347190000Y-51630000D03*
X344650000Y-51630000D03*
X342110000Y-51630000D03*
X339570000Y-51630000D03*
X337030000Y-51630000D03*
X334490000Y-51630000D03*
X331950000Y-51630000D03*
X329410000Y-51630000D03*
X329410000Y-66870000D03*
X331950000Y-66870000D03*
X334490000Y-66870000D03*
X337030000Y-66870000D03*
X339570000Y-66870000D03*
X342110000Y-66870000D03*
X344650000Y-66870000D03*
X347190000Y-66870000D03*
X349730000Y-66870000D03*
X352270000Y-66870000D03*
X354810000Y-66870000D03*
X357350000Y-66870000D03*
D10*
X204740000Y-53960000D03*
X198390000Y-56500000D03*
D11*
X197750000Y-138370000D03*
D12*
X197750000Y-130750000D03*
D10*
X184420000Y-150480000D03*
X178070000Y-153020000D03*
D11*
X232600000Y-138370000D03*
D12*
X232600000Y-130750000D03*
D10*
X316500000Y-94600000D03*
X310150000Y-97140000D03*
D11*
X192000000Y-138370000D03*
D12*
X192000000Y-130750000D03*
D11*
X70000000Y-118120000D03*
D12*
X70000000Y-110500000D03*
D10*
X153940000Y-94600000D03*
X147590000Y-97140000D03*
X113300000Y-74280000D03*
X106950000Y-76820000D03*
D11*
X171750000Y-138370000D03*
D12*
X171750000Y-130750000D03*
D10*
X113300000Y-114920000D03*
X106950000Y-117460000D03*
D11*
X196250000Y-214620000D03*
D12*
X196250000Y-207000000D03*
D10*
X153940000Y-74280000D03*
X147590000Y-76820000D03*
D13*
X196250000Y-217250000D03*
X197750000Y-223250000D03*
X355000000Y-54750000D03*
X361250000Y-61000000D03*
X263500000Y-152750000D03*
X263480000Y-150480000D03*
X332750000Y-54500000D03*
X322250000Y-58750000D03*
X330000000Y-57500000D03*
X322250000Y-53250000D03*
X326750000Y-68500000D03*
X254750000Y-51500000D03*
X260500000Y-51500000D03*
X218750000Y-120250000D03*
X220500000Y-116500000D03*
X220500000Y-84750000D03*
X220500000Y-71250000D03*
X205250000Y-86250000D03*
X202250000Y-83750000D03*
X202250000Y-217750000D03*
X203500000Y-222250000D03*
X223750000Y-222250000D03*
X230750000Y-217500000D03*
X110750000Y-144250000D03*
X113250000Y-149000000D03*
X148750000Y-149000000D03*
X151750000Y-142500000D03*
X167500000Y-141750000D03*
X192000000Y-141750000D03*
X202000000Y-143750000D03*
X226250000Y-144000000D03*
X229000000Y-146000000D03*
X254750000Y-146250000D03*
X247000000Y-140500000D03*
X262000000Y-146500000D03*
X287750000Y-140750000D03*
X289250000Y-146500000D03*
X325000000Y-145250000D03*
X325750000Y-73500000D03*
X325250000Y-68500000D03*
X211500000Y-217750000D03*
X204750000Y-217750000D03*
X190250000Y-218500000D03*
X185000000Y-218500000D03*
X186250000Y-147000000D03*
X201750000Y-135000000D03*
X96250000Y-144000000D03*
X99000000Y-148250000D03*
X150500000Y-148250000D03*
X155000000Y-143750000D03*
X169500000Y-145750000D03*
X177750000Y-141500000D03*
X180750000Y-145750000D03*
X236750000Y-145000000D03*
X252000000Y-214750000D03*
X257500000Y-212000000D03*
X232500000Y-140750000D03*
X257500000Y-145000000D03*
X273250000Y-140500000D03*
X275250000Y-145000000D03*
X304250000Y-145000000D03*
X311750000Y-140500000D03*
X114750000Y-143750000D03*
X127500000Y-143750000D03*
X155000000Y-145250000D03*
X176000000Y-218000000D03*
X178250000Y-221500000D03*
X226500000Y-221500000D03*
X228500000Y-218750000D03*
X242000000Y-220500000D03*
X171750000Y-141250000D03*
X173000000Y-144750000D03*
X226750000Y-140500000D03*
X228000000Y-143750000D03*
X267250000Y-140500000D03*
X269500000Y-143750000D03*
X303250000Y-143750000D03*
X308000000Y-140500000D03*
X308000000Y-143250000D03*
X333000000Y-143250000D03*
X338000000Y-143250000D03*
X347000000Y-72750000D03*
X211750000Y-219250000D03*
X204750000Y-219250000D03*
X167500000Y-145500000D03*
X83250000Y-146500000D03*
X88000000Y-146500000D03*
X123500000Y-145000000D03*
X127500000Y-146000000D03*
X165000000Y-143000000D03*
X167500000Y-143000000D03*
X197750000Y-140000000D03*
X226000000Y-141500000D03*
X253000000Y-141500000D03*
X264500000Y-141500000D03*
X295750000Y-141500000D03*
X305500000Y-141500000D03*
X334250000Y-141500000D03*
X340500000Y-142250000D03*
D14*
X196250000Y-221750000D02*
X196250000Y-217250000D01*
X197750000Y-223250000D02*
X196250000Y-221750000D01*
X361250000Y-61000000D02*
X355000000Y-54750000D01*
X263430000Y-152750000D02*
X263500000Y-152750000D01*
X245380000Y-170800000D02*
X263430000Y-152750000D01*
X225060000Y-170800000D02*
X245380000Y-170800000D01*
X204740000Y-191120000D02*
X225060000Y-191120000D01*
X184420000Y-191120000D02*
X204740000Y-191120000D01*
X245380000Y-150480000D02*
X263480000Y-150480000D01*
X225060000Y-150480000D02*
X245380000Y-150480000D01*
X332750000Y-58250000D02*
X332750000Y-54500000D01*
X332500000Y-58500000D02*
X332750000Y-58250000D01*
X322250000Y-58750000D02*
X332250000Y-58750000D01*
X332250000Y-58750000D02*
X332500000Y-58500000D01*
X316500000Y-114920000D02*
X336820000Y-114920000D01*
X325750000Y-53250000D02*
X330000000Y-57500000D01*
X322250000Y-53250000D02*
X325750000Y-53250000D01*
X275860000Y-114920000D02*
X296180000Y-114920000D01*
X332530000Y-74280000D02*
X326750000Y-68500000D01*
X336820000Y-74280000D02*
X332530000Y-74280000D01*
X336820000Y-94600000D02*
X357140000Y-94600000D01*
X260500000Y-51500000D02*
X254750000Y-51500000D01*
X220500000Y-118500000D02*
X218750000Y-120250000D01*
X220500000Y-116500000D02*
X220500000Y-118500000D01*
X220500000Y-71250000D02*
X220500000Y-84750000D01*
X204750000Y-86250000D02*
X205250000Y-86250000D01*
X202250000Y-83750000D02*
X204750000Y-86250000D01*
X335500000Y-68500000D02*
X335500000Y-67880000D01*
X335500000Y-67880000D02*
X334490000Y-66870000D01*
X202250000Y-221000000D02*
X202250000Y-217750000D01*
X203500000Y-222250000D02*
X202250000Y-221000000D01*
X228500000Y-217500000D02*
X223750000Y-222250000D01*
X230750000Y-217500000D02*
X228500000Y-217500000D01*
X110750000Y-146500000D02*
X110750000Y-144250000D01*
X113250000Y-149000000D02*
X110750000Y-146500000D01*
X148750000Y-145500000D02*
X148750000Y-149000000D01*
X151750000Y-142500000D02*
X148750000Y-145500000D01*
X164750000Y-141750000D02*
X163250000Y-143250000D01*
X167500000Y-141750000D02*
X164750000Y-141750000D01*
X163250000Y-143250000D02*
X155750000Y-143250000D01*
X155000000Y-142500000D02*
X151750000Y-142500000D01*
X155750000Y-143250000D02*
X155000000Y-142500000D01*
X200000000Y-141750000D02*
X192000000Y-141750000D01*
X202000000Y-143750000D02*
X200000000Y-141750000D01*
X228250000Y-146000000D02*
X226250000Y-144000000D01*
X229000000Y-146000000D02*
X228250000Y-146000000D01*
X255000000Y-146500000D02*
X254750000Y-146250000D01*
X262000000Y-146500000D02*
X255000000Y-146500000D01*
X249500000Y-143000000D02*
X247000000Y-140500000D01*
X262000000Y-146500000D02*
X262000000Y-144500000D01*
X260500000Y-143000000D02*
X249500000Y-143000000D01*
X262000000Y-144500000D02*
X260500000Y-143000000D01*
X287750000Y-145000000D02*
X287750000Y-140750000D01*
X289250000Y-146500000D02*
X287750000Y-145000000D01*
X328250000Y-142000000D02*
X325000000Y-145250000D01*
X328250000Y-138370000D02*
X328250000Y-142000000D01*
X325250000Y-73000000D02*
X325750000Y-73500000D01*
X325250000Y-68500000D02*
X325250000Y-73000000D01*
X204750000Y-217750000D02*
X211500000Y-217750000D01*
X185000000Y-218500000D02*
X190250000Y-218500000D01*
X186250000Y-138370000D02*
X186250000Y-147000000D01*
X235000000Y-135000000D02*
X201750000Y-135000000D01*
X238600000Y-138370000D02*
X235230000Y-135000000D01*
X235230000Y-135000000D02*
X235000000Y-135000000D01*
X96250000Y-145500000D02*
X96250000Y-144000000D01*
X99000000Y-148250000D02*
X96250000Y-145500000D01*
X155000000Y-143750000D02*
X150500000Y-148250000D01*
X163500000Y-143750000D02*
X155000000Y-143750000D01*
X164500000Y-144750000D02*
X163500000Y-143750000D01*
X169500000Y-146250000D02*
X168750000Y-147000000D01*
X169500000Y-145750000D02*
X169500000Y-146250000D01*
X168750000Y-147000000D02*
X166750000Y-147000000D01*
X166750000Y-147000000D02*
X164500000Y-144750000D01*
X177750000Y-142750000D02*
X177750000Y-141500000D01*
X180750000Y-145750000D02*
X177750000Y-142750000D01*
X254750000Y-214750000D02*
X252000000Y-214750000D01*
X257500000Y-212000000D02*
X254750000Y-214750000D01*
X232750000Y-141000000D02*
X232500000Y-140750000D01*
X257500000Y-145000000D02*
X236750000Y-145000000D01*
X236750000Y-145000000D02*
X232750000Y-141000000D01*
X304250000Y-145000000D02*
X310250000Y-145000000D01*
X310250000Y-145000000D02*
X311750000Y-143500000D01*
X311750000Y-143500000D02*
X311750000Y-140500000D01*
X275250000Y-142500000D02*
X273250000Y-140500000D01*
X275250000Y-145000000D02*
X275250000Y-142500000D01*
X127500000Y-143750000D02*
X114750000Y-143750000D01*
X162750000Y-145250000D02*
X155000000Y-145250000D01*
X173000000Y-144750000D02*
X169500000Y-148250000D01*
X169500000Y-148250000D02*
X165750000Y-148250000D01*
X165750000Y-148250000D02*
X162750000Y-145250000D01*
X176000000Y-219250000D02*
X176000000Y-218000000D01*
X178250000Y-221500000D02*
X176000000Y-219250000D01*
X228500000Y-219500000D02*
X226500000Y-221500000D01*
X228500000Y-218750000D02*
X228500000Y-219500000D01*
X230250000Y-220500000D02*
X228500000Y-218750000D01*
X242000000Y-220500000D02*
X230250000Y-220500000D01*
X171750000Y-143500000D02*
X171750000Y-141250000D01*
X173000000Y-144750000D02*
X171750000Y-143500000D01*
X228000000Y-141750000D02*
X226750000Y-140500000D01*
X228000000Y-143750000D02*
X228000000Y-141750000D01*
X267250000Y-141500000D02*
X267250000Y-140500000D01*
X269500000Y-143750000D02*
X267250000Y-141500000D01*
X303750000Y-143250000D02*
X303250000Y-143750000D01*
X308000000Y-143250000D02*
X303750000Y-143250000D01*
X308000000Y-143250000D02*
X308000000Y-140500000D01*
X338000000Y-143250000D02*
X333000000Y-143250000D01*
X339750000Y-72750000D02*
X347000000Y-72750000D01*
X335500000Y-68500000D02*
X339750000Y-72750000D01*
X204750000Y-219250000D02*
X211750000Y-219250000D01*
X167500000Y-143000000D02*
X167500000Y-145500000D01*
X85000000Y-146500000D02*
X83250000Y-146500000D01*
X88000000Y-146500000D02*
X85000000Y-146500000D01*
X124500000Y-146000000D02*
X123500000Y-145000000D01*
X127500000Y-146000000D02*
X124500000Y-146000000D01*
X167500000Y-143000000D02*
X165000000Y-143000000D01*
X220250000Y-140000000D02*
X197750000Y-140000000D01*
X220500000Y-140250000D02*
X220250000Y-140000000D01*
X226000000Y-141500000D02*
X221750000Y-141500000D01*
X221750000Y-141500000D02*
X220500000Y-140250000D01*
X264500000Y-141500000D02*
X253000000Y-141500000D01*
X305500000Y-141500000D02*
X295750000Y-141500000D01*
X335000000Y-142250000D02*
X334250000Y-141500000D01*
X340500000Y-142250000D02*
X335000000Y-142250000D01*
M02*
